<svg width="20" height="20" viewBox="0 0 20 20" fill="none" xmlns="http://www.w3.org/2000/svg">
<path fill-rule="evenodd" clip-rule="evenodd" d="M3.25 10C3.25 6.27208 6.27208 3.25 10 3.25C13.7279 3.25 16.75 6.27208 16.75 10C16.75 13.7279 13.7279 16.75 10 16.75C6.27208 16.75 3.25 13.7279 3.25 10ZM10 1.75C5.44365 1.75 1.75 5.44365 1.75 10C1.75 14.5563 5.44365 18.25 10 18.25C14.5563 18.25 18.25 14.5563 18.25 10C18.25 5.44365 14.5563 1.75 10 1.75ZM10 5.71447C10.4142 5.71447 10.75 6.05025 10.75 6.46447V9.25H13.5355C13.9497 9.25 14.2855 9.58579 14.2855 10C14.2855 10.4142 13.9497 10.75 13.5355 10.75H10.75V13.5355C10.75 13.9497 10.4142 14.2855 10 14.2855C9.58579 14.2855 9.25 13.9497 9.25 13.5355V10.75H6.46447C6.05025 10.75 5.71447 10.4142 5.71447 10C5.71447 9.58579 6.05025 9.25 6.46447 9.25H9.25V6.46447C9.25 6.05025 9.58579 5.71447 10 5.71447Z" fill="#0494F5"/>
</svg>
