<svg width="44" height="44" viewBox="0 0 44 44" fill="none" xmlns="http://www.w3.org/2000/svg">
<path d="M36.3979 34.1852C33.6158 31.4031 32.0832 27.7034 32.0832 23.7682V20.1666C32.0832 14.607 27.5594 10.0833 21.9998 10.0833C16.4403 10.0833 11.9165 14.607 11.9165 20.1666V23.7682C11.9165 27.7034 10.3838 31.4031 7.60176 34.1852C7.3396 34.4473 7.26076 34.8415 7.40285 35.1843C7.54401 35.5272 7.87951 35.7499 8.24985 35.7499H35.7498C36.1202 35.7499 36.4557 35.5272 36.5968 35.1843C36.7389 34.8415 36.6601 34.4473 36.3979 34.1852Z" fill="#F2CA00"/>
<path d="M21.9998 40.3333C19.4726 40.3333 17.4165 38.2772 17.4165 35.7499C17.4165 35.243 17.8263 34.8333 18.3332 34.8333C18.8401 34.8333 19.2498 35.243 19.2498 35.7499C19.2498 37.2661 20.4837 38.4999 21.9998 38.4999C23.516 38.4999 24.7498 37.2661 24.7498 35.7499C24.7498 35.243 25.1596 34.8333 25.6665 34.8333C26.1734 34.8333 26.5832 35.243 26.5832 35.7499C26.5832 38.2772 24.5271 40.3333 21.9998 40.3333Z" fill="#324561"/>
<path d="M35.9326 18.7962C35.8519 18.7962 35.7694 18.7852 35.6878 18.7632C35.2001 18.6293 34.9132 18.1242 35.048 17.6366C36.027 14.0808 33.9315 10.3912 30.3757 9.41132C29.8881 9.27749 29.6011 8.77241 29.7359 8.28474C29.8706 7.79707 30.373 7.50924 30.8625 7.64491C35.3917 8.89249 38.062 13.5932 36.8144 18.1242C36.7035 18.5294 36.335 18.7962 35.9326 18.7962Z" fill="#324561"/>
<path d="M40.7763 20.064C40.6938 20.064 40.6104 20.053 40.5279 20.0301C40.0412 19.8935 39.7561 19.3875 39.8936 18.8998C40.7378 15.8941 40.3583 12.7517 38.8247 10.0522C37.2902 7.35257 34.7859 5.41749 31.7719 4.60441C31.2833 4.47149 30.9937 3.96916 31.1257 3.47966C31.2586 2.99016 31.7655 2.70232 32.2504 2.83341C35.7411 3.77574 38.6423 6.01791 40.4188 9.14649C42.1962 12.2751 42.6371 15.9161 41.66 19.3967C41.5445 19.8 41.1769 20.064 40.7763 20.064Z" fill="#324561"/>
<path d="M8.06752 18.7963C7.66602 18.7963 7.2966 18.5296 7.18477 18.1235C5.93718 13.5924 8.60743 8.89176 13.1367 7.64417C13.6216 7.50851 14.1294 7.79634 14.2633 8.28401C14.3971 8.77167 14.1111 9.27676 13.6234 9.41059C10.0677 10.3896 7.97218 14.0801 8.95118 17.6358C9.08502 18.1235 8.79902 18.6286 8.31135 18.7624C8.23068 18.7853 8.14818 18.7963 8.06752 18.7963Z" fill="#324561"/>
<path d="M3.2239 20.064C2.82331 20.064 2.45573 19.8 2.34206 19.3957C1.36398 15.9142 1.8049 12.2741 3.58231 9.14555C5.35881 6.01697 8.26098 3.77572 11.7507 2.83247C12.2347 2.70413 12.7426 2.98922 12.8755 3.47872C13.0075 3.9673 12.7178 4.47055 12.2292 4.60347C9.21523 5.41655 6.70998 7.35163 5.17548 10.0512C3.64281 12.7508 3.26331 15.8931 4.10665 18.8989C4.24323 19.3865 3.95906 19.8925 3.47231 20.0291C3.3889 20.053 3.30548 20.064 3.2239 20.064Z" fill="#324561"/>
</svg>
