<svg width="20" height="20" viewBox="0 0 20 20" fill="none" xmlns="http://www.w3.org/2000/svg">
<path fill-rule="evenodd" clip-rule="evenodd" d="M13.3839 3.30159L16.6981 6.61365L14.9989 8.31333L11.6855 4.99994L13.3839 3.30159ZM17.8474 7.58567L15.5603 9.87334C15.5506 9.8842 15.5406 9.89485 15.5302 9.90527C15.5198 9.91564 15.5092 9.92565 15.4984 9.93529L9.12753 16.3077C9.09301 16.3741 9.04788 16.4364 8.99215 16.4921C8.93646 16.5478 8.87419 16.5929 8.80784 16.6274L8.21304 17.2224L8.21269 17.2228C7.95502 17.4801 7.60578 17.6248 7.24159 17.6249H7.24124H3.74984C3.38517 17.6249 3.03543 17.4801 2.77757 17.2222C2.5197 16.9643 2.37484 16.6146 2.37484 16.2499V12.7585L2.37484 12.7582C2.37501 12.394 2.51965 12.0448 2.77702 11.7871L2.77732 11.7868L10.0939 4.47021L10.0945 4.46961L10.0951 4.46901L12.4117 2.15242L12.4119 2.15225C12.6697 1.89458 13.0193 1.74984 13.3838 1.74984C13.7483 1.74984 14.0979 1.89458 14.3558 2.15225L17.8472 5.64131L17.8475 5.64166C18.1052 5.89949 18.2499 6.24909 18.2499 6.61361C18.2499 6.97813 18.1052 7.32773 17.8475 7.58556L17.8474 7.58567ZM8.43723 14.8766L13.9384 9.37411L10.6248 6.0606L5.12305 11.5624L8.43723 14.8766ZM4.06239 12.623L7.3767 15.9374L7.18917 16.1249H3.87484V12.8106L4.06239 12.623Z" fill="#0494F5"/>
</svg>
