<svg width="44" height="44" viewBox="0 0 44 44" fill="none" xmlns="http://www.w3.org/2000/svg">
<path d="M36.8419 10.0833H17.4077C16.7257 10.0833 16.0583 10.3656 15.5404 10.8982L11.497 15.5833H7.3335C5.92 15.5833 4.5835 16.9198 4.5835 18.3333V29.3333C4.5835 30.7725 5.89433 32.0833 7.3335 32.0833H11.497L15.5826 36.8151C16.062 37.3028 16.7275 37.5833 17.4077 37.5833H30.1072C30.7873 37.5833 31.4528 37.3028 31.9332 36.8142L38.6652 29.9576C39.1483 29.4671 39.415 28.8145 39.415 28.1196L39.4168 12.6894C39.4168 11.2521 38.2618 10.0833 36.8419 10.0833Z" fill="#8FCAE6"/>
<path d="M22.916 32.0833C22.75 32.0833 22.5823 32.0384 22.431 31.944C22.002 31.6763 21.8719 31.1107 22.1405 30.6808L25.8456 24.75H20.1669C19.8341 24.75 19.527 24.5694 19.3648 24.277C19.2035 23.9864 19.2126 23.6298 19.3895 23.3466L23.9729 16.0132C24.2415 15.5833 24.8061 15.4532 25.236 15.7227C25.665 15.9903 25.7952 16.5559 25.5266 16.9858L21.8215 22.9167H27.5002C27.833 22.9167 28.14 23.0972 28.3023 23.3897C28.4636 23.6802 28.4545 24.0368 28.2775 24.3201L23.6942 31.6534C23.52 31.9312 23.2212 32.0833 22.916 32.0833Z" fill="#324561"/>
<path d="M24.7502 11C24.2432 11 23.8335 10.5902 23.8335 10.0833V6.87498C23.8335 6.36806 24.2432 5.95831 24.7502 5.95831C25.2571 5.95831 25.6668 6.36806 25.6668 6.87498V10.0833C25.6668 10.5902 25.2571 11 24.7502 11Z" fill="#324561"/>
<path d="M31.1665 7.33333H18.3332C17.8263 7.33333 17.4165 6.92358 17.4165 6.41667C17.4165 5.90975 17.8263 5.5 18.3332 5.5H31.1665C31.6734 5.5 32.0832 5.90975 32.0832 6.41667C32.0832 6.92358 31.6734 7.33333 31.1665 7.33333Z" fill="#324561"/>
<path d="M0.916667 31.1667C0.40975 31.1667 0 30.7569 0 30.25V17.4167C0 16.9098 0.40975 16.5 0.916667 16.5C1.42358 16.5 1.83333 16.9098 1.83333 17.4167V30.25C1.83333 30.7569 1.42358 31.1667 0.916667 31.1667Z" fill="#324561"/>
<path d="M4.5835 24.75H1.37516C0.868246 24.75 0.458496 24.3402 0.458496 23.8333C0.458496 23.3264 0.868246 22.9166 1.37516 22.9166H4.5835C5.09041 22.9166 5.50016 23.3264 5.50016 23.8333C5.50016 24.3402 5.09041 24.75 4.5835 24.75Z" fill="#324561"/>
<path d="M43.0832 26.5834C42.5763 26.5834 42.1665 26.1736 42.1665 25.6667V12.8334C42.1665 12.3264 42.5763 11.9167 43.0832 11.9167C43.5901 11.9167 43.9998 12.3264 43.9998 12.8334V25.6667C43.9998 26.1736 43.5901 26.5834 43.0832 26.5834Z" fill="#324561"/>
<path d="M42.625 20.1666H39.4167C38.9098 20.1666 38.5 19.7569 38.5 19.25C38.5 18.7431 38.9098 18.3333 39.4167 18.3333H42.625C43.1319 18.3333 43.5417 18.7431 43.5417 19.25C43.5417 19.7569 43.1319 20.1666 42.625 20.1666Z" fill="#324561"/>
</svg>
