<svg width="44" height="44" viewBox="0 0 44 44" fill="none" xmlns="http://www.w3.org/2000/svg">
<path d="M22 2.75C11.385 2.75 2.75 11.385 2.75 22C2.75 32.615 11.385 41.25 22 41.25C32.615 41.25 41.25 32.615 41.25 22C41.25 11.385 32.615 2.75 22 2.75ZM22 33C15.9225 33 11 28.0775 11 22C11 15.9225 15.9225 11 22 11C28.0775 11 33 15.9225 33 22C33 28.0775 28.0775 33 22 33Z" fill="#FC9C9C"/>
<path d="M22.0002 11.9167C21.4932 11.9167 21.0835 11.507 21.0835 11V5.50004C21.0835 4.99312 21.4932 4.58337 22.0002 4.58337C22.5071 4.58337 22.9168 4.99312 22.9168 5.50004V11C22.9168 11.507 22.5071 11.9167 22.0002 11.9167Z" fill="#324561"/>
<path d="M11.5381 19.5176C11.4437 19.5176 11.3492 19.503 11.2539 19.4727L6.02342 17.7732C5.54308 17.6165 5.27908 17.0995 5.43492 16.6173C5.59167 16.137 6.105 15.873 6.59083 16.0288L11.8213 17.7283C12.3017 17.885 12.5657 18.402 12.4098 18.8842C12.2833 19.271 11.9249 19.5176 11.5381 19.5176Z" fill="#324561"/>
<path d="M12.3006 36.2652C12.1136 36.2652 11.9257 36.2084 11.7625 36.0901C11.3537 35.7931 11.262 35.2202 11.5599 34.8105L14.7921 30.361C15.0891 29.9503 15.6611 29.8586 16.0717 30.1584C16.4806 30.4554 16.5722 31.0283 16.2743 31.4381L13.0422 35.8876C12.8634 36.1351 12.5847 36.2652 12.3006 36.2652Z" fill="#324561"/>
<path d="M31.6994 36.2652C31.4152 36.2652 31.1366 36.1341 30.9569 35.8875L27.7247 31.438C27.4268 31.0283 27.5176 30.4553 27.9273 30.1583C28.3389 29.8595 28.9109 29.9512 29.207 30.3609L32.4391 34.8104C32.7371 35.2202 32.6463 35.7931 32.2366 36.0901C32.0743 36.2083 31.8855 36.2652 31.6994 36.2652Z" fill="#324561"/>
<path d="M32.4619 19.5176C32.075 19.5176 31.7166 19.271 31.5901 18.8851C31.4334 18.4039 31.6974 17.8859 32.1786 17.7292L37.4091 16.0297C37.895 15.872 38.4074 16.1369 38.565 16.6182C38.7218 17.0994 38.4578 17.6174 37.9765 17.7741L32.746 19.4736C32.6507 19.5029 32.5563 19.5176 32.4619 19.5176Z" fill="#324561"/>
<path d="M22.0002 33.9167C15.4295 33.9167 10.0835 28.5707 10.0835 22C10.0835 15.4294 15.4295 10.0834 22.0002 10.0834C28.5708 10.0834 33.9168 15.4294 33.9168 22C33.9168 28.5707 28.5708 33.9167 22.0002 33.9167ZM22.0002 11.9167C16.4406 11.9167 11.9168 16.4405 11.9168 22C11.9168 27.5596 16.4406 32.0834 22.0002 32.0834C27.5597 32.0834 32.0835 27.5596 32.0835 22C32.0835 16.4405 27.5597 11.9167 22.0002 11.9167Z" fill="#324561"/>
</svg>
