<svg width="22" height="22" viewBox="0 0 22 22" fill="none" xmlns="http://www.w3.org/2000/svg">
<path fill-rule="evenodd" clip-rule="evenodd" d="M11.0018 2C6.03013 2 2 6.02979 2 11.0005C2 15.9712 6.03013 20.001 11.0018 20.001C15.9735 20.001 20.0037 15.9712 20.0037 11.0005C20.0037 6.02979 15.9735 2 11.0018 2ZM0 11.0005C0 4.92497 4.92581 0 11.0018 0C17.0779 0 22.0037 4.92497 22.0037 11.0005C22.0037 17.076 17.0779 22.001 11.0018 22.001C4.92581 22.001 0 17.076 0 11.0005ZM9.16909 10.1676C9.16909 9.61528 9.6168 9.16756 10.1691 9.16756C10.6554 9.16756 11.1217 9.36073 11.4656 9.70458C11.8094 10.0484 12.0026 10.5148 12.0026 11.001V15.0158C12.4756 15.095 12.8361 15.5064 12.8361 16.002C12.8361 16.5542 12.3883 17.002 11.8361 17.002C11.3498 17.002 10.8834 16.8088 10.5396 16.465C10.1957 16.1211 10.0026 15.6547 10.0026 15.1685V11.1538C9.52955 11.0745 9.16909 10.6631 9.16909 10.1676ZM11.8353 6.41712C11.8353 7.1076 11.2755 7.66735 10.585 7.66735C9.89454 7.66735 9.33479 7.1076 9.33479 6.41712C9.33479 5.72663 9.89454 5.16689 10.585 5.16689C11.2755 5.16689 11.8353 5.72663 11.8353 6.41712Z" fill="#323232"/>
</svg>
