<svg width="44" height="44" viewBox="0 0 44 44" fill="none" xmlns="http://www.w3.org/2000/svg">
<path d="M30.7076 6.71021H29.9161L26.7498 7.50176L24.3253 6.71021H19.621L17.2511 7.50176L14.0848 6.71021H13.2933C11.1078 6.71021 9.33545 8.4825 9.33545 10.668V33.6232C9.33545 35.8087 11.1078 37.581 13.2933 37.581H32.7657C33.8145 37.581 34.6654 36.73 34.6654 35.6812V10.668C34.6654 8.4825 32.8931 6.71021 30.7076 6.71021Z" fill="#12D9E3"/>
<path d="M29.9158 8.29335H23.7653C23.4519 8.29335 23.1685 8.10971 23.0419 7.82316C22.9152 7.53662 22.9682 7.20258 23.178 6.97065C23.4392 6.68253 23.5833 6.30812 23.5833 5.91867C23.5833 5.04559 22.8733 4.33556 22.0002 4.33556C21.1271 4.33556 20.417 5.04559 20.417 5.91867C20.417 6.30812 20.5611 6.68253 20.8223 6.97065C21.0321 7.20258 21.0851 7.53741 20.9585 7.82316C20.8318 8.10891 20.5476 8.29335 20.235 8.29335H14.0845C13.6468 8.29335 13.293 7.93952 13.293 7.50179C13.293 7.06406 13.6468 6.71023 14.0845 6.71023H18.9344C18.8679 6.45377 18.8339 6.1886 18.8339 5.91867C18.8339 4.1725 20.254 2.75244 22.0002 2.75244C23.7463 2.75244 25.1664 4.1725 25.1664 5.91867C25.1664 6.1886 25.1324 6.45377 25.0659 6.71023H29.9158C30.3535 6.71023 30.7073 7.06406 30.7073 7.50179C30.7073 7.93952 30.3535 8.29335 29.9158 8.29335Z" fill="#324561"/>
<path d="M28.3335 17.0004H15.6685C15.2308 17.0004 14.877 16.6465 14.877 16.2088C14.877 15.7711 15.2308 15.4172 15.6685 15.4172H28.3335C28.7712 15.4172 29.1251 15.7711 29.1251 16.2088C29.1251 16.6465 28.7712 17.0004 28.3335 17.0004Z" fill="#324561"/>
<path d="M27.542 26.4991H15.6685C15.2308 26.4991 14.877 26.1453 14.877 25.7076C14.877 25.2698 15.2308 24.916 15.6685 24.916H27.542C27.9797 24.916 28.3335 25.2698 28.3335 25.7076C28.3335 26.1453 27.9797 26.4991 27.542 26.4991Z" fill="#324561"/>
<path d="M25.1673 31.2484H15.6685C15.2308 31.2484 14.877 30.8946 14.877 30.4568C14.877 30.0191 15.2308 29.6653 15.6685 29.6653H25.1673C25.605 29.6653 25.9588 30.0191 25.9588 30.4568C25.9588 30.8946 25.605 31.2484 25.1673 31.2484Z" fill="#324561"/>
<path d="M23.5841 21.7499H15.6685C15.2308 21.7499 14.877 21.396 14.877 20.9583C14.877 20.5206 15.2308 20.1667 15.6685 20.1667H23.5841C24.0219 20.1667 24.3757 20.5206 24.3757 20.9583C24.3757 21.396 24.0219 21.7499 23.5841 21.7499Z" fill="#324561"/>
</svg>
