<svg width="44" height="44" viewBox="0 0 44 44" fill="none" xmlns="http://www.w3.org/2000/svg">
<path d="M39.4312 18.4607C38.9673 17.8327 38.531 17.2406 38.3504 16.6869C38.157 16.0929 38.1598 15.3302 38.1625 14.5227C38.1662 13.2302 38.1708 11.8937 37.3879 10.8175C36.5987 9.73216 35.2613 9.30591 34.0824 8.92824C33.3198 8.68441 32.5993 8.45433 32.1043 8.09408C31.6193 7.74116 31.183 7.13249 30.7219 6.48808C29.9959 5.47516 29.1737 4.32658 27.8784 3.90583C26.6345 3.50158 25.3768 3.91591 24.1604 4.31466C23.3822 4.57041 22.6452 4.81241 21.9998 4.81241C21.3545 4.81241 20.6175 4.57041 19.8393 4.31466C18.6228 3.91499 17.3652 3.50066 16.1213 3.90583C14.826 4.32658 14.0038 5.47516 13.2778 6.48899C12.8167 7.13249 12.3813 7.74116 11.8973 8.09408C11.4013 8.45524 10.6808 8.68533 9.91817 8.92824C8.73842 9.30499 7.401 9.73216 6.61175 10.8175C5.82892 11.8927 5.8335 13.2292 5.83717 14.5227C5.83992 15.3302 5.84267 16.0929 5.64925 16.6869C5.46959 17.2406 5.03234 17.8327 4.5685 18.4607C3.82417 19.4699 2.979 20.6148 2.979 21.9999C2.979 23.385 3.82417 24.5299 4.5685 25.5392C5.03234 26.1671 5.46867 26.7592 5.64925 27.3129C5.84267 27.9069 5.83992 28.6696 5.83717 29.4772C5.8335 30.7697 5.82892 32.1062 6.61175 33.1823C7.401 34.2677 8.73842 34.6939 9.91725 35.0716C10.6799 35.3154 11.4004 35.5455 11.8954 35.9057C12.3803 36.2587 12.8167 36.8673 13.2778 37.5117C14.0038 38.5247 14.826 39.6732 16.1213 40.094C17.3643 40.4982 18.6228 40.0839 19.8393 39.6852C20.6184 39.4294 21.3545 39.1874 21.9998 39.1874C22.6452 39.1874 23.3822 39.4294 24.1604 39.6852C25.0248 39.9693 25.9094 40.2599 26.7958 40.2599C27.157 40.2599 27.5182 40.2113 27.8784 40.094C29.1737 39.6732 29.9959 38.5247 30.7219 37.5108C31.183 36.8673 31.6184 36.2587 32.1024 35.9057C32.5983 35.5446 33.3188 35.3145 34.0815 35.0716C35.2613 34.6948 36.5987 34.2677 37.3879 33.1823C38.1708 32.1071 38.1662 30.7706 38.1625 29.4772C38.1598 28.6696 38.157 27.9069 38.3504 27.3129C38.5301 26.7592 38.9673 26.1671 39.4312 25.5392C40.1755 24.5299 41.0207 23.385 41.0207 21.9999C41.0207 20.6148 40.1755 19.4699 39.4312 18.4607Z" fill="#FC9C9C"/>
<path d="M17.4156 29.3334C17.2313 29.3334 17.0453 29.2775 16.8839 29.162C16.4723 28.8687 16.3761 28.2958 16.6713 27.8833L25.8379 15.0499C26.1322 14.6384 26.7051 14.5421 27.1167 14.8373C27.5283 15.1306 27.6245 15.7035 27.3293 16.116L18.1627 28.9494C17.983 29.1996 17.7025 29.3334 17.4156 29.3334Z" fill="#324561"/>
<path d="M26.1248 29.3334C24.3557 29.3334 22.9165 27.8942 22.9165 26.1251C22.9165 24.3559 24.3557 22.9167 26.1248 22.9167C27.894 22.9167 29.3332 24.3559 29.3332 26.1251C29.3332 27.8942 27.894 29.3334 26.1248 29.3334ZM26.1248 24.7501C25.3668 24.7501 24.7498 25.367 24.7498 26.1251C24.7498 26.8832 25.3668 27.5001 26.1248 27.5001C26.8829 27.5001 27.4998 26.8832 27.4998 26.1251C27.4998 25.367 26.8829 24.7501 26.1248 24.7501Z" fill="#324561"/>
<path d="M17.8748 21.0834C16.1057 21.0834 14.6665 19.6442 14.6665 17.8751C14.6665 16.1059 16.1057 14.6667 17.8748 14.6667C19.644 14.6667 21.0832 16.1059 21.0832 17.8751C21.0832 19.6442 19.644 21.0834 17.8748 21.0834ZM17.8748 16.5001C17.1168 16.5001 16.4998 17.117 16.4998 17.8751C16.4998 18.6332 17.1168 19.2501 17.8748 19.2501C18.6329 19.2501 19.2498 18.6332 19.2498 17.8751C19.2498 17.117 18.6329 16.5001 17.8748 16.5001Z" fill="#324561"/>
</svg>
