<svg width="44" height="44" viewBox="0 0 44 44" fill="none" xmlns="http://www.w3.org/2000/svg">
<path d="M33.9167 3.66663H10.0833C7.55608 3.66663 5.5 5.72271 5.5 8.24996V22C5.5 35.3283 21.0329 40.964 21.6947 41.1977C21.7928 41.2325 21.8973 41.25 22 41.25C22.1027 41.25 22.2072 41.2325 22.3053 41.1977C22.9671 40.964 38.5 35.3283 38.5 22V8.24996C38.5 5.72271 36.4439 3.66663 33.9167 3.66663Z" fill="#6BE3A2"/>
<path d="M20.8082 26.5833C20.612 26.5833 20.4195 26.521 20.26 26.4018L14.1184 21.8185C13.7123 21.5151 13.6289 20.9412 13.9314 20.5361C14.2348 20.13 14.8104 20.0466 15.2138 20.3491L20.5983 24.3677L28.3982 13.2257C28.6879 12.8104 29.2589 12.7105 29.6751 13.0002C30.0904 13.2898 30.1903 13.8618 29.9006 14.2771L21.5589 26.1937C21.4169 26.3972 21.1978 26.5338 20.9539 26.5732C20.9063 26.5797 20.8568 26.5833 20.8082 26.5833Z" fill="#324561"/>
</svg>
