<svg width="44" height="44" viewBox="0 0 44 44" fill="none" xmlns="http://www.w3.org/2000/svg">
<path d="M36.6667 14.7858V22.9166C36.6667 23.1 36.6209 23.265 36.52 23.4116C36.2725 22.0275 35.7042 20.7075 34.8517 19.5616L30.1309 13.2183C29.8925 12.8883 29.4617 12.76 29.0859 12.8975C27.39 13.5483 26.3817 15.3266 26.6934 17.1233C26.9684 18.7 27.5642 20.7808 28.545 23.0266L18.5442 33.0641C18.0309 33.5775 17.3342 33.8708 16.6009 33.8708C15.8675 33.8708 15.18 33.5775 14.6575 33.0641C13.585 31.9916 13.585 30.2408 14.6575 29.1683L15.5742 28.2516C15.0517 28.7741 14.3642 29.0583 13.6309 29.0583C12.8975 29.0583 12.2009 28.7741 11.6875 28.2516C11.165 27.7383 10.8809 27.0416 10.8809 26.3083C10.8809 25.575 11.165 24.8875 11.6875 24.365L12.6042 23.4483C12.0634 23.9891 11.3575 24.255 10.6609 24.255C9.95502 24.255 9.24919 23.9891 8.70835 23.4483C8.19502 22.935 7.90169 22.2383 7.90169 21.505C7.90169 20.7716 8.19502 20.0841 8.70835 19.5616L10.2759 17.9941C9.74419 18.535 9.03835 18.8008 8.33252 18.8008C7.62669 18.8008 6.92085 18.535 6.38919 17.9941C5.86669 17.4808 5.58252 16.7841 5.58252 16.0508C5.58252 15.3175 5.86669 14.63 6.38919 14.1075L7.68169 12.815C7.68169 12.815 7.68169 12.815 7.68169 12.8058L16.6742 3.81331C19.3692 1.11831 23.2925 0.183313 26.9134 1.35665L30.7909 2.61248C32.615 3.19915 34.0725 4.56498 34.7784 6.35248L35.31 7.69081C36.2084 9.96415 36.6667 12.3475 36.6667 14.7858Z" fill="#F2CA00"/>
<path d="M14.9252 28.5239C14.6905 28.5239 14.4559 28.434 14.2771 28.2553C13.9187 27.8969 13.9187 27.3175 14.2771 26.9591L18.0547 23.1815C18.4131 22.8231 18.9924 22.8231 19.3509 23.1815C19.7093 23.5399 19.7093 24.1193 19.3509 24.4777L15.5733 28.2553C15.3945 28.4349 15.1599 28.5239 14.9252 28.5239Z" fill="#324561"/>
<path d="M9.62881 18.2646C9.39414 18.2646 9.15948 18.1748 8.98073 17.996C8.62231 17.6376 8.62231 17.0583 8.98073 16.6999L10.2769 15.4037C10.6353 15.0453 11.2146 15.0453 11.5731 15.4037C11.9315 15.7621 11.9315 16.3414 11.5731 16.6999L10.2769 17.996C10.0981 18.1748 9.86348 18.2646 9.62881 18.2646Z" fill="#324561"/>
<path d="M11.9525 23.7188C11.7179 23.7188 11.4832 23.6289 11.3045 23.4502C10.946 23.0918 10.946 22.5124 11.3045 22.154L14.1663 19.2931C14.5247 18.9347 15.104 18.9347 15.4625 19.2931C15.8209 19.6515 15.8209 20.2309 15.4625 20.5893L12.6006 23.4502C12.4219 23.6289 12.1872 23.7188 11.9525 23.7188Z" fill="#324561"/>
<path d="M26.0175 43.0741C24.4812 43.0741 22.9742 42.4315 21.91 41.2399L16.0085 34.6325C15.672 34.2549 15.7041 33.6755 16.0818 33.3382C16.4576 33.0018 17.0379 33.032 17.3761 33.4115L23.2776 40.0189C24.3089 41.1748 25.9653 41.5561 27.3999 40.9695L31.8613 39.1462C33.2253 38.5889 34.2446 37.3981 34.5856 35.9617L35.2795 33.043C35.5912 31.7267 35.7498 30.3728 35.7498 29.0189V25.0369C35.7498 23.2732 35.1695 21.5242 34.1181 20.1116L29.3973 13.7664C28.1231 14.2477 27.3595 15.5998 27.5988 16.9665C27.8976 18.721 28.5054 20.3674 29.6301 22.4748C29.8694 22.9212 29.6998 23.4767 29.2534 23.715C28.8097 23.9534 28.2515 23.7856 28.0131 23.3383C26.8068 21.0787 26.1211 19.2096 25.792 17.2791C25.4034 15.0553 26.65 12.8516 28.7556 12.0413C29.5247 11.7571 30.3919 12.0211 30.8722 12.6802L35.5885 19.0171C36.8745 20.7441 37.5831 22.8827 37.5831 25.0369V29.0189C37.5831 30.5149 37.408 32.0118 37.0625 33.4674L36.3685 36.387C35.891 38.3955 34.4665 40.0629 32.5552 40.8439L28.0929 42.6671C27.421 42.9421 26.717 43.0741 26.0175 43.0741Z" fill="#324561"/>
</svg>
