<svg width="25" height="24" viewBox="0 0 25 24" fill="none" xmlns="http://www.w3.org/2000/svg">
<path fill-rule="evenodd" clip-rule="evenodd" d="M13.2071 3.04289C12.8166 2.65237 12.1834 2.65237 11.7929 3.04289L8.04289 6.79289C7.65237 7.18342 7.65237 7.81658 8.04289 8.20711C8.43342 8.59763 9.06658 8.59763 9.45711 8.20711L11.5 6.16421V14.25C11.5 14.8023 11.9477 15.25 12.5 15.25C13.0523 15.25 13.5 14.8023 13.5 14.25V6.16421L15.5429 8.20711C15.9334 8.59763 16.5666 8.59763 16.9571 8.20711C17.3476 7.81658 17.3476 7.18342 16.9571 6.79289L13.2071 3.04289ZM4.25 13.25C4.80228 13.25 5.25 13.6977 5.25 14.25V19.25H19.75V14.25C19.75 13.6977 20.1977 13.25 20.75 13.25C21.3023 13.25 21.75 13.6977 21.75 14.25V19.5C21.75 19.9641 21.5656 20.4092 21.2374 20.7374C20.9092 21.0656 20.4641 21.25 20 21.25H5C4.53587 21.25 4.09075 21.0656 3.76256 20.7374C3.43437 20.4092 3.25 19.9641 3.25 19.5V14.25C3.25 13.6977 3.69772 13.25 4.25 13.25Z" fill="#0494F5"/>
</svg>
